<?xml version="1.0" standalone="no"?>
<!DOCTYPE svg PUBLIC "-//W3C//DTD SVG 20010904//EN"
 "http://www.w3.org/TR/2001/REC-SVG-20010904/DTD/svg10.dtd">
<svg version="1.0" xmlns="http://www.w3.org/2000/svg"
 width="667.000000pt" height="667.000000pt" viewBox="0 0 667.000000 667.000000"
 preserveAspectRatio="xMidYMid meet">
<metadata>
Created by potrace 1.14, written by Peter Selinger 2001-2017
</metadata>
<g transform="translate(0.000000,667.000000) scale(0.100000,-0.100000)"
fill="#000000" stroke="none">
<path d="M3137 4964 c-2 -2 -31 -6 -66 -9 -65 -5 -172 -27 -251 -49 -25 -8
-65 -19 -90 -26 -129 -37 -401 -186 -519 -286 -73 -63 -231 -229 -231 -244 0
-6 -4 -10 -10 -10 -5 0 -10 -6 -10 -14 0 -8 -3 -16 -7 -18 -30 -13 -156 -245
-198 -363 -9 -27 -20 -57 -23 -65 -3 -8 -7 -23 -8 -33 -2 -9 -13 -52 -24 -95
-11 -44 -22 -99 -25 -123 -2 -24 -7 -66 -11 -94 -11 -77 -11 -235 -1 -235 5 0
4 -7 -3 -15 -6 -8 -9 -19 -5 -24 3 -6 10 -45 15 -88 9 -78 13 -101 27 -158 9
-38 9 -37 16 -55 4 -8 8 -26 11 -40 3 -14 16 -53 29 -87 14 -34 22 -64 19 -67
-3 -3 0 -6 6 -6 7 0 12 -7 12 -15 0 -17 20 -56 33 -66 5 -3 8 -8 7 -10 -4 -11
25 -63 90 -163 25 -38 51 -79 57 -91 13 -22 223 -242 223 -232 0 5 45 -31 81
-65 11 -10 23 -18 29 -18 6 0 10 -4 10 -10 0 -5 5 -10 11 -10 6 0 30 -13 54
-30 24 -16 48 -30 53 -30 5 0 15 -7 22 -15 7 -8 16 -12 21 -9 5 3 9 1 9 -3 0
-9 15 -16 135 -68 70 -30 88 -38 101 -40 6 -2 38 -11 70 -20 60 -17 76 -21
129 -30 17 -3 37 -8 45 -10 30 -9 179 -18 310 -18 125 -1 168 2 275 18 52 8
236 67 300 96 28 13 52 24 55 24 3 0 15 6 28 13 12 7 22 9 22 5 0 -4 6 -1 13
7 7 8 30 24 52 35 39 19 171 105 209 135 91 74 283 288 331 371 11 19 30 50
42 69 44 70 101 187 127 265 16 44 31 87 34 95 3 8 6 20 8 27 1 6 7 35 14 65
6 29 14 76 17 103 2 28 8 66 12 85 13 66 3 368 -15 453 -2 9 -6 27 -9 40 -27
123 -57 223 -82 270 -8 15 -12 27 -9 27 4 0 -51 110 -88 175 -29 50 -70 110
-77 113 -5 2 -9 10 -9 18 0 8 -4 14 -9 14 -5 0 -12 9 -16 20 -8 26 -211 231
-253 255 -17 11 -32 23 -32 27 0 4 -5 8 -10 8 -12 0 -73 41 -78 53 -2 4 -8 7
-13 7 -5 0 -32 15 -61 33 -60 38 -260 136 -293 142 -5 2 -41 12 -80 23 -38 11
-83 23 -100 27 -16 4 -39 9 -50 12 -11 2 -40 6 -65 8 -25 2 -45 5 -45 5 0 9
-280 22 -288 14z"/>
</g>
</svg>
